<svg width="15" height="15" viewBox="0 0 15 15" fill="none" xmlns="http://www.w3.org/2000/svg">
<path d="M6.93336 6.00001H8.06669V4.30001H9.7667V3.16667H8.06669V1.46667H6.93336V3.16667H5.23336V4.30001H6.93336V6.00001ZM4.66669 11.1C4.04336 11.1 3.53903 11.61 3.53903 12.2333C3.53903 12.8567 4.04336 13.3667 4.66669 13.3667C5.29003 13.3667 5.80003 12.8567 5.80003 12.2333C5.80003 11.61 5.29003 11.1 4.66669 11.1ZM10.3334 11.1C9.71003 11.1 9.20569 11.61 9.20569 12.2333C9.20569 12.8567 9.71003 13.3667 10.3334 13.3667C10.9567 13.3667 11.4667 12.8567 11.4667 12.2333C11.4667 11.61 10.9567 11.1 10.3334 11.1ZM4.76303 9.25834L4.78003 9.19034L5.29003 8.26668H9.51169C9.9367 8.26668 10.3107 8.03434 10.5034 7.68301L12.6907 3.71068L11.7047 3.16667H11.699L11.0757 4.30001L9.51169 7.13334H5.53369L5.46003 6.98034L4.19069 4.30001L3.65236 3.16667L3.11969 2.03334H1.26669V3.16667H2.40003L4.44003 7.46768L3.67503 8.85601C3.58436 9.01468 3.53336 9.20168 3.53336 9.40001C3.53336 10.0233 4.04336 10.5333 4.66669 10.5333H11.4667V9.40001H4.90469C4.83103 9.40001 4.76303 9.33768 4.76303 9.25834Z" fill="white"/>
</svg>
