<svg width="12" height="13" viewBox="0 0 12 13" fill="none" xmlns="http://www.w3.org/2000/svg">
<path d="M5.93336 5.00001H7.06669V3.30001H8.76669V2.16667H7.06669V0.466675H5.93336V2.16667H4.23336V3.30001H5.93336V5.00001ZM3.66669 10.1C3.04336 10.1 2.53903 10.61 2.53903 11.2333C2.53903 11.8567 3.04336 12.3667 3.66669 12.3667C4.29003 12.3667 4.80003 11.8567 4.80003 11.2333C4.80003 10.61 4.29003 10.1 3.66669 10.1ZM9.33336 10.1C8.71003 10.1 8.20569 10.61 8.20569 11.2333C8.20569 11.8567 8.71003 12.3667 9.33336 12.3667C9.9567 12.3667 10.4667 11.8567 10.4667 11.2333C10.4667 10.61 9.9567 10.1 9.33336 10.1ZM3.76303 8.25834L3.78003 8.19034L4.29003 7.26668H8.51169C8.93669 7.26668 9.31069 7.03434 9.50336 6.68301L11.6907 2.71068L10.7047 2.16667H10.699L10.0757 3.30001L8.51169 6.13334H4.53369L4.46003 5.98034L3.19069 3.30001L2.65236 2.16667L2.11969 1.03334H0.266693V2.16667H1.40003L3.44003 6.46768L2.67503 7.85601C2.58436 8.01468 2.53336 8.20168 2.53336 8.40001C2.53336 9.02334 3.04336 9.53334 3.66669 9.53334H10.4667V8.40001H3.90469C3.83103 8.40001 3.76303 8.33768 3.76303 8.25834Z" fill="white"/>
</svg>
